# xmcd CD database file
# Copyright (C) 1993-1998 Ti Kan
#
# Track frame offsets:
#  183
#  13158
#  23733
#  36435
#  48405
#  60633
#  72250
#  84033
#  96255
#  108538
#  119808
#  130383
#  141933
#  153543
#  165008
#  178608
#  189708
#  200065
#  210633
#  221583
#  234558
#  244833
#  253983
#  287883
#  310603
#
# Disc length: 4571 seconds
#
# Revision: 1
# Processed by: cddbd v1.4b41PL1 Copyright (c) Steve Scherf et al.
# Submitted via: CDWizzard Release:4.35
#
DISCID=7711d919
DTITLE=Ray Charles - The Ray Charles Story
DYEAR=1900
DGENRE=
TTITLE0=Baby Won't You Please Come Home
TTITLE1=The Ego Song
TTITLE2=You Always Miss The Water
TTITLE3=St. Pete's Blues
TTITLE4=I Live Only For You
TTITLE5=What Have I Done
TTITLE6=See See Rider
TTITLE7=I've Had My Fun
TTITLE8=Honey Honey
TTITLE9=Here Am I
TTITLE10=I Wonder Who's Kissing Her Now
TTITLE11=Ray Charles Blues
TTITLE12=She's On The Ball
TTITLE13=If I Give You My Love
TTITLE14=I'm Going Down To The River
TTITLE15=Let's Have A Ball
TTITLE16=Hey Now
TTITLE17=Sitting On Top Of The World
TTITLE18=A Sentimental Blues
TTITLE19=I Used To Be So Happy
TTITLE20=Ain't That Fine
TTITLE21=All To Myself Alone
TTITLE22=Georgia On My Mind
TTITLE23=What'd I Say
TTITLE24=Come Rain Or Come Shine
EXTD=
EXTT0=
EXTT1=
EXTT2=
EXTT3=
EXTT4=
EXTT5=
EXTT6=
EXTT7=
EXTT8=
EXTT9=
EXTT10=
EXTT11=
EXTT12=
EXTT13=
EXTT14=
EXTT15=
EXTT16=
EXTT17=
EXTT18=
EXTT19=
EXTT20=
EXTT21=
EXTT22=
EXTT23=
EXTT24=
PLAYORDER=
